<?xml version="1.0" standalone="no"?><!DOCTYPE svg PUBLIC "-//W3C//DTD SVG 1.1//EN" "http://www.w3.org/Graphics/SVG/1.1/DTD/svg11.dtd"><svg t="1627478423539" class="icon" viewBox="0 0 1024 1024" version="1.1" xmlns="http://www.w3.org/2000/svg" p-id="1201" width="16" height="16" xmlns:xlink="http://www.w3.org/1999/xlink"><defs><style type="text/css">@font-face { font-family: feedback-iconfont; src: url("//at.alicdn.com/t/font_1031158_1uhr8ri0pk5.eot?#iefix") format("embedded-opentype"), url("//at.alicdn.com/t/font_1031158_1uhr8ri0pk5.woff2") format("woff2"), url("//at.alicdn.com/t/font_1031158_1uhr8ri0pk5.woff") format("woff"), url("//at.alicdn.com/t/font_1031158_1uhr8ri0pk5.ttf") format("truetype"), url("//at.alicdn.com/t/font_1031158_1uhr8ri0pk5.svg#iconfont") format("svg"); }
</style></defs><path d="M230 127c0-36 31.72-60 78.3-60h634.4c48.58 0 80.3 24 80.3 60s-31.72 60-79.3 60H309.3c-47.58 0-79.3-24-79.3-60z m713.7 324.33H309.31c-47.58 0-79.3 24-79.3 60s31.72 60 79.3 60H943.7c47.58 0 79.3-24 79.3-60s-31.72-60-79.3-60z m0 390.67H309.31c-47.58 0-79.3 24-79.3 60s31.72 60 79.3 60H943.7c47.58 0 79.3-24 79.3-60s-31.72-60-79.3-60zM63 68C29.86 68 3 94.86 3 128s26.86 60 60 60 60-26.86 60-60-26.86-60-60-60z m0 384c-33.14 0-60 26.86-60 60s26.86 60 60 60 60-26.86 60-60-26.86-60-60-60z m-1 390c-33.14 0-60 26.86-60 60s26.86 60 60 60 60-26.86 60-60-26.86-60-60-60z" p-id="1202"></path></svg>